@startuml
title Analysis Class Diagram - UC025 ExpiryNotification

class "ExpiryNotificationUI" as UI <<boundary>> {
  + Interact() : void
  + Return Data() : void
}
class "ExpiryNotificationController" as Controller <<control>> {
  + Process Request() : void
}
class "ExpiryNotificationDB" as Entity <<entity>> {
  + Query/Update DB() : void
}

Controller -- UI
Controller -- Entity
@enduml
