@startuml
title Analysis Class Diagram - UC036 BlockUnblockUser

class "AdminUI" as UI <<boundary>> {
  + toggleLock() : void
  + displayStatus() : void
}
class "AdminController" as Controller <<control>> {
  + toggleUserLock(userId: String) : void
}
class "UserDB" as Entity <<entity>> {
  + updateUserStatus(userId: String, newStatus: String) : Boolean
}

Controller -- UI
Controller -- Entity
@enduml
